<svg width="16" height="16" viewBox="0 0 16 16" fill="none" xmlns="http://www.w3.org/2000/svg">
<g clip-path="url(#clip0_76903_1682)">
<path d="M14.1 1.90011C12.7 0.49344 10.82 0.666773 7.99998 0.666773C5.35998 0.666773 3.33332 0.460107 1.89998 1.90011C0.493318 3.30011 0.666651 5.18011 0.666651 8.00011C0.666651 10.6334 0.459985 12.6668 1.89998 14.1001C3.29998 15.5068 5.17999 15.3334 7.99998 15.3334C10.64 15.3334 12.6667 15.5401 14.1 14.1001C15.5 12.7001 15.3333 10.8201 15.3333 8.00011C15.3333 5.12677 15.4933 3.28677 14.1 1.90011ZM13.1667 13.1668C12.2533 14.0801 11.0467 14.0134 7.99998 14.0134C5.13999 14.0134 3.77332 14.1134 2.83332 13.1668C1.87332 12.2068 1.98665 10.8268 1.98665 8.00011C1.98665 5.18011 1.88665 3.78011 2.83332 2.83344C3.77332 1.89344 5.06665 1.98677 7.99998 1.98677C10.82 1.98677 12.22 1.88677 13.1667 2.83344C14.0867 3.75344 14.0133 4.98011 14.0133 8.00011C14.0133 10.8268 14.1133 12.2268 13.1667 13.1668Z" fill="white"/>
<path d="M8 4.23345C7.00093 4.23354 6.04282 4.63051 5.33643 5.33702C4.63004 6.04353 4.23325 7.00172 4.23334 8.00079C4.23343 8.99986 4.63039 9.95797 5.3369 10.6644C6.04341 11.3707 7.0016 11.7675 8.00067 11.7675C8.99974 11.7674 9.95786 11.3704 10.6642 10.6639C11.3706 9.95738 11.7674 8.99919 11.7673 8.00012C11.7672 7.00105 11.3703 6.04293 10.6638 5.33655C9.95726 4.63016 8.99907 4.23337 8 4.23345ZM8 10.4468C6.65334 10.4468 5.55334 9.35345 5.55334 8.00012C5.55334 6.64679 6.64667 5.55345 8 5.55345C9.35334 5.55345 10.4467 6.64679 10.4467 8.00012C10.4467 9.34679 9.34667 10.4468 8 10.4468ZM11.9133 3.20679C11.4267 3.20679 11.0333 3.60012 11.0333 4.08679C11.0333 4.57345 11.4267 4.96679 11.9133 4.96679C12.4 4.96679 12.7933 4.57345 12.7933 4.08679C12.7933 3.60012 12.4 3.20679 11.9133 3.20679Z" fill="white"/>
</g>
<defs>
<clipPath id="clip0_76903_1682">
<rect width="16" height="16" fill="white"/>
</clipPath>
</defs>
</svg>
