<svg width="16" height="16" viewBox="0 0 16 16" fill="none" xmlns="http://www.w3.org/2000/svg">
<path d="M15.3334 8.00008C15.3334 8.00008 15.3334 5.43341 15.0267 4.28008C14.86 3.64675 14.36 3.14675 13.7334 2.97341C12.5867 2.66675 8.00002 2.66675 8.00002 2.66675C8.00002 2.66675 3.41335 2.66675 2.26669 2.97341C1.63335 3.14008 1.14002 3.64675 0.973354 4.28008C0.666687 5.43341 0.666687 8.00008 0.666687 8.00008C0.666687 8.00008 0.693354 10.5667 1.00002 11.7201C1.16669 12.3534 1.66669 12.8534 2.30002 13.0267C3.44002 13.3334 8.02669 13.3334 8.02669 13.3334C8.02669 13.3334 12.6134 13.3334 13.76 13.0267C14.3934 12.8601 14.8867 12.3534 15.0534 11.7201C15.36 10.5667 15.3334 8.00008 15.3334 8.00008ZM6.66669 10.1801V5.82008L10.3334 8.00008L6.66669 10.1801Z" fill="white"/>
</svg>
